<svg xmlns="http://www.w3.org/2000/svg" width="625" height="355" viewBox="65 50 625 355" role="img" aria-label="Number line with ranges and average flags (shorter axis)">
  <style>
    .label { font: 16px system-ui, -apple-system, Segoe UI, Roboto, Arial, sans-serif; fill: #111; }
    .small { font: 12px system-ui, -apple-system, Segoe UI, Roboto, Arial, sans-serif; fill: #333; }
    .axis  { stroke: #111; stroke-width: 2; }
    .tick  { stroke: #111; stroke-width: 2; }
    .bar   { fill: none; stroke-width: 10; stroke-linecap: round; }
    .cap   { stroke-width: 2; }
    .value { font: 12px ui-monospace, SFMono-Regular, Menlo, Monaco, Consolas, "Liberation Mono", monospace; fill: #333; }
    .flagName { font: 24px system-ui, -apple-system, Segoe UI, Roboto, Arial, sans-serif; font-weight: 600; }
  </style>

  <text x="305" y="230" class="label" font-weight="700">Average Effect Size ± SD</text>

  <!-- Axis baseline (scaled down 1.5x: 800 -> 533.333) -->
  <line x1="120" y1="160" x2="653.333" y2="160" class="axis"></line>

  <!-- Major ticks (no grid lines), scaled positions -->
  <line x1="120" y1="160" x2="120" y2="172" class="tick"></line>
  <text x="120" y="192" text-anchor="middle" class="small">0.05</text>

  <line x1="196.191" y1="160" x2="196.191" y2="170" class="tick"></line>
  <text x="196.191" y="192" text-anchor="middle" class="small">0.10</text>

  <line x1="272.381" y1="160" x2="272.381" y2="170" class="tick"></line>
  <text x="272.381" y="192" text-anchor="middle" class="small">0.15</text>

  <line x1="348.571" y1="160" x2="348.571" y2="172" class="tick"></line>
  <text x="348.571" y="192" text-anchor="middle" class="small">0.20</text>

  <line x1="424.762" y1="160" x2="424.762" y2="170" class="tick"></line>
  <text x="424.762" y="192" text-anchor="middle" class="small">0.25</text>

  <line x1="500.953" y1="160" x2="500.953" y2="172" class="tick"></line>
  <text x="500.953" y="192" text-anchor="middle" class="small">0.30</text>

  <line x1="577.143" y1="160" x2="577.143" y2="170" class="tick"></line>
  <text x="577.143" y="192" text-anchor="middle" class="small">0.35</text>

  <!-- 0.40 label + arrow head (no vertical tick line) -->
  <text x="653.333" y="192" text-anchor="middle" class="small">0.40</text>
  <path d="M653.333 160 L641.333 154 L641.333 166 Z" fill="#111"></path>

  <!-- Average flags (scaled x positions) -->
  <g transform="translate(196.191,160)">
    <line x1="0" y1="0" x2="0" y2="-44" stroke="#805ad5" stroke-width="6" stroke-linecap="round"></line>
    <path d="M0 -44 L36 -36 L0 -28 Z" fill="#805ad5"></path>
    <text x="-10" y="-28" text-anchor="end" class="flagName" fill="#805ad5">Curriculum</text>
  </g>

  <g transform="translate(226.667,160)">
    <line x1="0" y1="0" x2="0" y2="-44" stroke="#b569b1" stroke-width="6" stroke-linecap="round"></line>
    <path d="M0 -44 L36 -36 L0 -28 Z" fill="#b569b1"></path>
    <text x="0" y="-58" text-anchor="end" class="flagName" fill="#b569b1">Teacher PD</text>
  </g>

  <g transform="translate(241.905,160)">
    <line x1="0" y1="0" x2="0" y2="-44" stroke="#b7791f" stroke-width="6" stroke-linecap="round"></line>
    <path d="M0 -44 L36 -36 L0 -28 Z" fill="#b7791f"></path>
    <text x="0" y="-58" text-anchor="start" class="flagName" fill="#b7791f">Digital programs</text>
  </g>

  <g transform="translate(440,160)">
    <line x1="0" y1="0" x2="0" y2="-44" stroke="#0069b4" stroke-width="6" stroke-linecap="round"></line>
    <path d="M0 -44 L36 -36 L0 -28 Z" fill="#0069b4"></path>
    <text x="0" y="-58" text-anchor="start" class="flagName" fill="#0069b4">Tutoring</text>
  </g>

  <g transform="translate(551.238,160)">
    <line x1="0" y1="0" x2="0" y2="-44" stroke="#f19135" stroke-width="6" stroke-linecap="round"></line>
    <path d="M0 -44 L36 -36 L0 -28 Z" fill="#f19135"></path>
    <text x="0" y="-58" text-anchor="start" class="flagName" fill="#f19135">Slonig*</text>
  </g>

  <!-- Ranges -->
  <line x1="135.238" y1="270" x2="257.143" y2="270" class="bar" stroke="#805ad5"></line>
  <line x1="135.238" y1="262" x2="135.238" y2="278" class="cap" stroke="#805ad5"></line>
  <line x1="257.143" y1="262" x2="257.143" y2="278" class="cap" stroke="#805ad5"></line>

  <line x1="150.476" y1="300" x2="318.095" y2="300" class="bar" stroke="#b569b1"></line>
  <line x1="150.476" y1="292" x2="150.476" y2="308" class="cap" stroke="#b569b1"></line>
  <line x1="318.095" y1="292" x2="318.095" y2="308" class="cap" stroke="#b569b1"></line>

  <line x1="120" y1="330" x2="348.571" y2="330" class="bar" stroke="#b7791f"></line>
  <line x1="120" y1="322" x2="120" y2="338" class="cap" stroke="#b7791f"></line>
  <line x1="348.571" y1="322" x2="348.571" y2="338" class="cap" stroke="#b7791f"></line>

  <line x1="257.143" y1="360" x2="622.857" y2="360" class="bar" stroke="#0069b4"></line>
  <line x1="257.143" y1="352" x2="257.143" y2="368" class="cap" stroke="#0069b4"></line>
  <line x1="622.857" y1="352" x2="622.857" y2="368" class="cap" stroke="#0069b4"></line>

  <circle cx="551.238" cy="390" r="10" fill="#f19135"></circle>
  <circle cx="551.238" cy="390" r="10" fill="none" stroke="#f19135" stroke-width="2"></circle>
</svg>